<svg width="1920" height="500" viewBox="0 0 1920 500" fill="none" xmlns="http://www.w3.org/2000/svg">
<rect width="1920" height="500" fill="white"/>
<path d="M356.488 258.408C356.488 259.112 356.232 259.72 355.72 260.232C355.208 260.744 354.6 261 353.896 261H334.12C333.416 261 332.808 260.744 332.296 260.232C331.784 259.72 331.528 259.112 331.528 258.408V196.392C331.528 195.688 331.784 195.08 332.296 194.568C332.808 194.056 333.416 193.8 334.12 193.8H386.248C386.952 193.8 387.56 194.056 388.072 194.568C388.584 195.08 388.84 195.688 388.84 196.392V211.848C388.84 212.552 388.584 213.16 388.072 213.672C387.56 214.184 386.952 214.44 386.248 214.44H356.392L356.488 258.408ZM421.539 257.736C420.707 259.912 419.267 261 417.219 261H399.075C398.499 261 397.987 260.808 397.539 260.424C397.155 259.976 396.963 259.464 396.963 258.888L397.059 258.312L417.987 196.968C418.243 196.136 418.723 195.4 419.427 194.76C420.131 194.12 421.091 193.8 422.307 193.8H448.995C450.211 193.8 451.171 194.12 451.875 194.76C452.579 195.4 453.059 196.136 453.315 196.968L474.243 258.312L474.339 258.888C474.339 259.464 474.115 259.976 473.667 260.424C473.283 260.808 472.803 261 472.227 261H454.083C452.035 261 450.595 259.912 449.763 257.736L447.363 251.016H423.939L421.539 257.736ZM435.651 212.328L428.835 232.296H442.467L435.651 212.328ZM482.365 261.96C481.661 261.96 481.021 261.704 480.445 261.192C479.933 260.68 479.677 260.072 479.677 259.368V244.008C479.677 243.304 479.933 242.696 480.445 242.184C480.957 241.672 481.565 241.416 482.269 241.416C484.573 241.416 486.333 238.728 487.549 233.352C488.765 227.976 489.373 220.2 489.373 210.024V196.392C489.373 195.688 489.629 195.08 490.141 194.568C490.653 194.056 491.261 193.8 491.965 193.8H546.493C547.197 193.8 547.805 194.056 548.317 194.568C548.829 195.08 549.085 195.688 549.085 196.392V258.408C549.085 259.112 548.829 259.72 548.317 260.232C547.805 260.744 547.197 261 546.493 261H528.637C527.933 261 527.325 260.744 526.813 260.232C526.301 259.72 526.045 259.112 526.045 258.408V214.44H511.453V219.336C511.453 234.056 508.989 244.84 504.061 251.688C499.133 258.536 491.901 261.96 482.365 261.96ZM629.592 242.28C630.296 242.28 630.904 242.536 631.416 243.048C631.928 243.56 632.184 244.168 632.184 244.872V258.408C632.184 259.112 631.928 259.72 631.416 260.232C630.904 260.744 630.296 261 629.592 261H568.92C568.216 261 567.608 260.744 567.096 260.232C566.584 259.72 566.328 259.112 566.328 258.408V196.392C566.328 195.688 566.584 195.08 567.096 194.568C567.608 194.056 568.216 193.8 568.92 193.8H628.632C629.336 193.8 629.944 194.056 630.456 194.568C630.968 195.08 631.224 195.688 631.224 196.392V209.928C631.224 210.632 630.968 211.24 630.456 211.752C629.944 212.264 629.336 212.52 628.632 212.52H591.288V218.568H623.352C624.056 218.568 624.664 218.824 625.176 219.336C625.688 219.848 625.944 220.456 625.944 221.16V233.64C625.944 234.344 625.688 234.952 625.176 235.464C624.664 235.976 624.056 236.232 623.352 236.232H591.288V242.28H629.592ZM689.842 193.8C695.858 193.8 701.106 194.824 705.586 196.872C710.066 198.92 713.49 201.704 715.858 205.224C718.226 208.744 719.41 212.68 719.41 217.032C719.41 224.2 717.17 229.832 712.69 233.928C708.21 237.96 700.594 239.976 689.842 239.976H677.17V258.408C677.17 259.112 676.914 259.72 676.402 260.232C675.89 260.744 675.282 261 674.578 261H653.938C653.234 261 652.626 260.744 652.114 260.232C651.602 259.72 651.346 259.112 651.346 258.408V196.392C651.346 195.688 651.602 195.08 652.114 194.568C652.626 194.056 653.234 193.8 653.938 193.8H689.842ZM689.458 222.216C690.994 222.216 692.21 221.768 693.106 220.872C694.002 219.912 694.45 218.664 694.45 217.128C694.45 215.528 694.002 214.216 693.106 213.192C692.21 212.168 690.994 211.656 689.458 211.656H677.266V222.216H689.458ZM792.717 242.28C793.421 242.28 794.029 242.536 794.541 243.048C795.053 243.56 795.309 244.168 795.309 244.872V258.408C795.309 259.112 795.053 259.72 794.541 260.232C794.029 260.744 793.421 261 792.717 261H732.045C731.341 261 730.733 260.744 730.221 260.232C729.709 259.72 729.453 259.112 729.453 258.408V196.392C729.453 195.688 729.709 195.08 730.221 194.568C730.733 194.056 731.341 193.8 732.045 193.8H791.757C792.461 193.8 793.069 194.056 793.581 194.568C794.093 195.08 794.349 195.688 794.349 196.392V209.928C794.349 210.632 794.093 211.24 793.581 211.752C793.069 212.264 792.461 212.52 791.757 212.52H754.413V218.568H786.477C787.181 218.568 787.789 218.824 788.301 219.336C788.813 219.848 789.069 220.456 789.069 221.16V233.64C789.069 234.344 788.813 234.952 788.301 235.464C787.789 235.976 787.181 236.232 786.477 236.232H754.413V242.28H792.717ZM872.647 193.8C873.351 193.8 873.959 194.056 874.471 194.568C874.983 195.08 875.239 195.688 875.239 196.392V258.408C875.239 259.112 874.983 259.72 874.471 260.232C873.959 260.744 873.351 261 872.647 261H851.911C851.207 261 850.599 260.744 850.087 260.232C849.575 259.72 849.319 259.112 849.319 258.408V239.592H843.079L834.727 258.6C834.407 259.304 833.863 259.88 833.095 260.328C832.391 260.776 831.591 261 830.695 261H808.903C808.327 261 807.815 260.808 807.367 260.424C806.983 259.976 806.791 259.464 806.791 258.888C806.791 258.568 806.855 258.28 806.983 258.024L818.503 236.616C814.919 234.888 812.071 232.424 809.959 229.224C807.847 226.024 806.791 221.96 806.791 217.032C806.791 212.296 807.943 208.168 810.247 204.648C812.551 201.128 815.847 198.44 820.135 196.584C824.487 194.728 829.543 193.8 835.303 193.8H872.647ZM849.319 211.656H837.319C835.847 211.656 834.727 212.2 833.959 213.288C833.255 214.312 832.903 215.528 832.903 216.936C832.903 218.344 833.287 219.528 834.055 220.488C834.823 221.384 835.911 221.832 837.319 221.832H849.319V211.656Z" fill="black"/>
<circle cx="210" cy="229" r="96" fill="#00A3FF"/>
<path d="M206.512 217.09C207.306 214.954 210.639 214.072 212.676 213.98C214.254 213.909 215.386 215.153 215.899 216.553C216.382 217.87 213.662 217.903 212.94 218.033C211.089 218.364 209.218 218.44 207.342 218.447C205.956 218.453 204.305 218.61 203.082 217.816C201.461 216.764 200.844 214.485 201.235 212.68C201.716 210.46 203.453 207.367 205.419 206.092C207.078 205.016 209.748 205.551 210.98 207.025C211.551 207.709 211.857 208.949 211.055 209.607C210.229 210.285 208.85 209.382 208.265 208.806C206.482 207.052 206.575 203.286 206.522 200.974C206.493 199.71 206.095 197.583 207.229 196.696C208.802 195.464 210.508 195.716 212.412 195.716C213.949 195.716 214.563 195.705 215.918 195.037C219.534 193.254 223.474 191.804 227.491 191.343C229.888 191.067 232.148 190.344 234.512 190.033C236.591 189.759 238.847 189.81 240.874 190.296C241.815 190.522 242.996 191.455 243.833 191.927C245.573 192.907 247.382 193.927 248.847 195.291C249.973 196.34 250.611 197.71 251.429 199.014C252.311 200.42 253.176 201.998 253.588 203.613C253.945 205.016 254.351 206.29 254.351 207.751C254.351 209.315 254.32 210.856 254.219 212.416C253.947 216.634 253.653 220.852 253.295 225.063C253.088 227.504 252.246 229.866 252.146 232.32C252.101 233.407 252.032 234.597 251.806 235.656C251.53 236.958 251.656 238.307 251.392 239.615C250.185 245.575 249.523 251.876 246.048 257.088C244.992 258.672 243.899 260.391 242.618 261.809C241.627 262.906 240.597 263.869 239.762 265.099C239.378 265.663 238.967 266.301 238.537 266.823C237.283 268.345 236.446 270.083 235.332 271.696C234.99 272.192 234.095 273.112 234.004 273.75C233.932 274.249 233.927 274.527 233.655 274.975C233.326 275.517 233.485 276.394 233.485 277.011C233.485 277.409 233.19 277.737 233.155 277.134C232.991 274.264 233.157 271.346 233.146 268.472C233.138 266.358 232.902 264.379 232.505 262.309C232.013 259.741 230.919 257.351 230.017 254.901C229.173 252.609 228.294 250.413 227.651 248.059C226.863 245.169 223.987 243.1 222.016 241C220.621 239.515 218.892 238.201 217.718 236.514C217.347 235.98 216.784 235.319 216.257 234.94C215.369 234.301 213.358 234.404 212.318 234.394C209.494 234.365 206.689 234.41 203.968 235.242C202.219 235.776 200.402 235.994 198.671 236.637C195.878 237.674 193.195 239.942 191.32 242.235C188.842 245.266 187.472 249.388 187.041 253.261C186.648 256.801 187.425 260.499 186.57 263.996C186.33 264.977 186.077 266.129 185.647 267.04C185.185 268.017 184.45 269.033 184.299 270.112C184.149 271.184 183.207 273.542 184.205 274.429C184.932 275.075 185.647 275.886 185.647 276.898C185.647 277.021 185.718 277.819 185.515 277.765C184.973 277.621 184.49 276.825 184.186 276.427C183.269 275.23 182.359 274.032 181.688 272.676C179.724 268.701 177.926 264.611 176.184 260.537C175.25 258.353 174.793 255.878 174.196 253.582C173.865 252.309 173.375 251.146 173.225 249.831C173.084 248.598 172.487 247.523 172.245 246.316C172.166 245.921 172.08 248.012 172.075 248.285C172.041 250.435 171.445 252.527 171.189 254.656C170.973 256.459 170.642 251.98 170.624 251.782C170.181 246.991 168.947 242.338 168.258 237.598C167.781 234.31 167.469 231.012 166.948 227.721C166.527 225.055 166.138 222.588 166.138 219.889C166.138 215.906 166.138 211.941 166.854 208.005C167.539 204.238 168.901 200.617 170.52 197.158C171.103 195.912 171.702 194.581 172.688 193.595C173.756 192.527 175.351 191.577 176.656 190.834C178.67 189.687 180.873 189.425 183.149 189.194C185.073 188.999 186.635 189.585 188.417 190.249C190.171 190.903 191.961 191.138 193.62 192.068C195.42 193.077 197.288 193.718 198.916 195.037C202.541 197.973 202.448 202.619 199.972 206.309C196.24 211.871 190.449 215.761 186.438 221.124C184.117 224.228 181.79 227.529 181.066 231.397C180.9 232.284 180.727 233.204 180.727 234.111C180.727 236.756 181.957 228.962 182.405 226.355C183.289 221.206 183.781 216.135 183.781 210.917C183.781 208.029 183.594 204.955 184.93 202.294C186.847 198.478 191.515 201.464 193.752 203.557C195.971 205.633 197.047 208.568 197.672 211.473C198.43 214.996 198.765 219.064 196.843 222.293C195.535 224.49 193.493 226.351 191.358 227.721C188.82 229.35 185.853 230.156 183.347 231.84C181.716 232.935 179.671 234.782 178.899 236.674C178.886 236.704 178.528 237.701 178.427 237.56C177.922 236.853 179.163 234.77 179.464 234.252C182.741 228.614 188.932 224.289 194.411 221.058C198.95 218.382 203.615 216.812 208.699 215.535C213.998 214.204 219.326 212.327 224.739 211.53C225.449 211.425 226.952 211.029 227.661 211.417C229.493 212.419 229.975 215.969 230.3 217.722C231.179 222.465 231.11 227.309 231.11 232.113C231.11 233.025 231.81 233.725 232.156 234.554C232.375 235.078 234.453 240.724 234.635 240.633C235.566 240.167 231.205 231.39 230.875 230.718C228.952 226.808 226.014 223.463 223.721 219.767C222.719 218.151 221.918 216.403 221.309 214.602C220.657 212.676 219.732 209.932 220.8 207.967C222.083 205.608 225.611 205.102 227.962 204.763C230.102 204.454 232.683 204.239 234.72 205.14C239.015 207.04 239.347 212.361 239.347 216.431C239.347 221.836 238.416 227.373 236.963 232.575C236.557 234.027 236.037 235.459 235.936 236.976C235.802 238.967 236.436 240.914 236.331 242.876C236.282 243.803 235.956 244.704 235.87 245.628C235.808 246.286 235.027 250.17 236.284 250.17C238.534 250.17 241.011 251.901 242.683 253.318C243.926 254.371 245.378 255.116 246.906 255.599C247.584 255.813 248.423 256.435 248.14 255.335C247.853 254.217 247.308 253.222 246.793 252.206C246.176 250.99 245.477 249.674 245.379 248.295C245.274 246.82 245.342 245.338 245.021 243.893" stroke="white" stroke-width="18" stroke-linecap="round"/>
<path d="M220.65 288.025C220.725 260.975 213.1 246.425 210 246.425C206.9 246.425 199.35 260.975 199.35 287.975C199.35 290.325 198.375 292.525 196.65 294.075C193.825 296.6 189.375 296.925 186.2 294.775C171.6 284.9 159.15 266.725 152.95 246.2C146.35 224.35 147.575 202.925 156.25 188.925C161.3 180.775 168.525 175.675 177.15 174.2C184.075 173.025 191.5 174.25 198.9 177.85C205.75 181.175 214.25 181.175 221.125 177.85C228.5 174.25 235.95 173 242.85 174.2C251.475 175.675 258.7 180.775 263.75 188.925C272.425 202.95 273.65 224.35 267.05 246.2C260.85 266.725 248.425 284.925 233.8 294.775C229.175 297.9 220.625 296.75 220.65 288.025ZM178.875 184.25C173.15 185.35 168.45 188.6 164.95 194.3C157.875 205.675 157.05 224.45 162.725 243.25C167.875 260.275 177.65 275.375 189.2 284.35C189.825 260.475 196.375 236.225 210 236.225C223.625 236.225 230.2 260.525 230.8 284.35C242.35 275.375 252.125 260.275 257.275 243.25C262.95 224.45 262.125 205.675 255.075 194.3C251.55 188.625 246.875 185.25 241.15 184.25C236.325 183.425 231.025 184.375 225.575 187.025C215.95 191.675 204.075 191.675 194.45 187.025C190.25 185 182.85 183.475 178.875 184.25Z" fill="black"/>
<path d="M179 221.186C179.593 221.293 180.224 221.758 180.765 221.986C184.436 223.532 188.344 224.555 192.302 225.004C201.932 226.096 211.86 225.484 221.41 224.029C225.267 223.441 228.939 222.749 232.69 221.699C234.045 221.319 235.394 220.903 236.703 220.385C242.309 218.169 237.305 219.761 242.368 217.306" stroke="black" stroke-width="8" stroke-linecap="round"/>
<path d="M240.756 214C242.42 215.63 243.67 217.921 244.756 220" stroke="black" stroke-width="8" stroke-linecap="round"/>
<path d="M184.395 207.893C183.287 207.77 184.852 203.844 184.953 203.567C186.107 200.407 187.586 195.648 191.815 196.021C196.846 196.464 200.878 201.886 200.878 206.756" stroke="black" stroke-width="8" stroke-linecap="round"/>
<path d="M217.395 207.893C216.287 207.77 217.852 203.844 217.953 203.567C219.107 200.407 220.586 195.648 224.815 196.021C229.846 196.464 233.878 201.886 233.878 206.756" stroke="black" stroke-width="8" stroke-linecap="round"/>
<path d="M981.264 193.8C981.904 193.8 982.416 194.024 982.8 194.472C983.248 194.856 983.472 195.304 983.472 195.816C983.472 196.392 983.28 197.128 982.896 198.024L962.16 241.416C959.6 246.792 957.232 250.824 955.056 253.512C952.88 256.2 950.192 258.12 946.992 259.272C943.856 260.424 939.536 261 934.032 261H922.992C922.288 261 921.68 260.744 921.168 260.232C920.656 259.72 920.4 259.112 920.4 258.408V243.048C920.4 242.344 920.656 241.736 921.168 241.224C921.68 240.712 922.288 240.456 922.992 240.456H930.768C932.432 240.456 933.872 240.2 935.088 239.688L911.664 196.776C911.472 196.456 911.376 196.136 911.376 195.816C911.376 195.24 911.6 194.76 912.048 194.376C912.56 193.992 913.2 193.8 913.968 193.8H934.992C935.76 193.8 936.368 193.992 936.816 194.376C937.264 194.76 937.68 195.336 938.064 196.104L947.472 216.552L956.976 196.104C957.68 194.568 958.768 193.8 960.24 193.8H981.264ZM993.803 261.96C993.099 261.96 992.459 261.704 991.883 261.192C991.371 260.68 991.115 260.072 991.115 259.368V244.008C991.115 243.304 991.371 242.696 991.883 242.184C992.395 241.672 993.003 241.416 993.707 241.416C996.011 241.416 997.771 238.728 998.987 233.352C1000.2 227.976 1000.81 220.2 1000.81 210.024V196.392C1000.81 195.688 1001.07 195.08 1001.58 194.568C1002.09 194.056 1002.7 193.8 1003.4 193.8H1057.93C1058.63 193.8 1059.24 194.056 1059.75 194.568C1060.27 195.08 1060.52 195.688 1060.52 196.392V258.408C1060.52 259.112 1060.27 259.72 1059.75 260.232C1059.24 260.744 1058.63 261 1057.93 261H1040.07C1039.37 261 1038.76 260.744 1038.25 260.232C1037.74 259.72 1037.48 259.112 1037.48 258.408V214.44H1022.89V219.336C1022.89 234.056 1020.43 244.84 1015.5 251.688C1010.57 258.536 1003.34 261.96 993.803 261.96ZM1097.16 215.208C1105.09 215.208 1111.33 217.256 1115.88 221.352C1120.42 225.448 1122.69 230.984 1122.69 237.96C1122.69 242.312 1121.67 246.248 1119.62 249.768C1117.64 253.224 1114.73 255.976 1110.89 258.024C1107.05 260.008 1102.5 261 1097.25 261H1073.35C1072.65 261 1072.04 260.744 1071.53 260.232C1071.01 259.72 1070.76 259.112 1070.76 258.408V196.392C1070.76 195.688 1071.01 195.08 1071.53 194.568C1072.04 194.056 1072.65 193.8 1073.35 193.8H1090.25C1090.95 193.8 1091.56 194.056 1092.07 194.568C1092.58 195.08 1092.84 195.688 1092.84 196.392V215.208H1097.16ZM1130.85 261C1130.15 261 1129.54 260.744 1129.03 260.232C1128.52 259.72 1128.26 259.112 1128.26 258.408V196.392C1128.26 195.688 1128.52 195.08 1129.03 194.568C1129.54 194.056 1130.15 193.8 1130.85 193.8H1146.6C1147.3 193.8 1147.91 194.056 1148.42 194.568C1148.93 195.08 1149.19 195.688 1149.19 196.392V258.408C1149.19 259.112 1148.93 259.72 1148.42 260.232C1147.91 260.744 1147.3 261 1146.6 261H1130.85ZM1097.16 243.048C1099.21 243.048 1100.77 242.568 1101.86 241.608C1102.95 240.648 1103.49 239.336 1103.49 237.672C1103.49 234.344 1101.38 232.68 1097.16 232.68H1092.84V243.048H1097.16ZM1201.09 219.048C1209.66 219.048 1216.29 220.904 1220.96 224.616C1225.7 228.264 1228.06 233.352 1228.06 239.88C1228.06 246.408 1225.7 251.56 1220.96 255.336C1216.22 259.112 1209.57 261 1200.99 261H1161.44C1160.74 261 1160.13 260.744 1159.62 260.232C1159.1 259.72 1158.85 259.112 1158.85 258.408V196.392C1158.85 195.688 1159.1 195.08 1159.62 194.568C1160.13 194.056 1160.74 193.8 1161.44 193.8H1217.89C1218.59 193.8 1219.2 194.056 1219.71 194.568C1220.22 195.08 1220.48 195.688 1220.48 196.392V209.832C1220.48 210.536 1220.22 211.144 1219.71 211.656C1219.2 212.168 1218.59 212.424 1217.89 212.424H1183.81V219.048H1201.09ZM1197.73 244.488C1199.2 244.488 1200.29 243.976 1200.99 242.952C1201.76 241.928 1202.14 240.808 1202.14 239.592C1202.14 238.376 1201.73 237.32 1200.9 236.424C1200.13 235.528 1199.07 235.08 1197.73 235.08H1183.81V244.488H1197.73ZM1308.76 233.256C1308.76 243.048 1305.5 250.28 1298.97 254.952C1292.51 259.624 1283.87 261.96 1273.05 261.96C1262.23 261.96 1253.56 259.624 1247.03 254.952C1240.57 250.28 1237.34 242.984 1237.34 233.064V221.736C1237.34 215.208 1238.87 209.8 1241.95 205.512C1245.08 201.16 1249.34 197.96 1254.71 195.912C1260.09 193.864 1266.2 192.84 1273.05 192.84C1279.9 192.84 1285.98 193.864 1291.29 195.912C1296.67 197.96 1300.92 201.128 1304.06 205.416C1307.19 209.704 1308.76 215.08 1308.76 221.544V233.256ZM1263.26 235.08C1263.26 237.704 1264.12 239.72 1265.85 241.128C1267.64 242.536 1270.04 243.24 1273.05 243.24C1276.06 243.24 1278.43 242.536 1280.15 241.128C1281.95 239.656 1282.84 237.608 1282.84 234.984V219.816C1282.84 217.192 1281.95 215.176 1280.15 213.768C1278.43 212.296 1276.06 211.56 1273.05 211.56C1270.04 211.56 1267.64 212.264 1265.85 213.672C1264.12 215.08 1263.26 217.096 1263.26 219.72V235.08ZM1394.26 257.64C1394.52 258.024 1394.64 258.44 1394.64 258.888C1394.64 259.464 1394.42 259.976 1393.97 260.424C1393.59 260.808 1393.11 261 1392.53 261H1367.76C1366.29 261 1365.14 260.488 1364.31 259.464L1349.52 238.056H1346.64V258.408C1346.64 259.112 1346.39 259.72 1345.88 260.232C1345.36 260.744 1344.76 261 1344.05 261H1324.28C1323.57 261 1322.96 260.744 1322.45 260.232C1321.94 259.72 1321.68 259.112 1321.68 258.408V196.392C1321.68 195.688 1321.94 195.08 1322.45 194.568C1322.96 194.056 1323.57 193.8 1324.28 193.8H1344.05C1344.76 193.8 1345.36 194.056 1345.88 194.568C1346.39 195.08 1346.64 195.688 1346.64 196.392V216.168H1348.76L1362.77 195.432C1363.73 194.344 1364.92 193.8 1366.32 193.8H1389.46C1390.04 193.8 1390.52 194.024 1390.9 194.472C1391.35 194.856 1391.57 195.336 1391.57 195.912C1391.57 196.424 1391.41 196.872 1391.09 197.256L1368.34 225L1394.26 257.64Z" fill="black"/>
</svg>
