<svg width="1282" height="192" viewBox="0 0 1282 192" fill="none" xmlns="http://www.w3.org/2000/svg">
<path d="M242.488 125.408C242.488 126.112 242.232 126.72 241.72 127.232C241.208 127.744 240.6 128 239.896 128H220.12C219.416 128 218.808 127.744 218.296 127.232C217.784 126.72 217.528 126.112 217.528 125.408V63.392C217.528 62.688 217.784 62.08 218.296 61.568C218.808 61.056 219.416 60.8 220.12 60.8H272.248C272.952 60.8 273.56 61.056 274.072 61.568C274.584 62.08 274.84 62.688 274.84 63.392V78.848C274.84 79.552 274.584 80.16 274.072 80.672C273.56 81.184 272.952 81.44 272.248 81.44H242.392L242.488 125.408ZM307.539 124.736C306.707 126.912 305.267 128 303.219 128H285.075C284.499 128 283.987 127.808 283.539 127.424C283.155 126.976 282.963 126.464 282.963 125.888L283.059 125.312L303.987 63.968C304.243 63.136 304.723 62.4 305.427 61.76C306.131 61.12 307.091 60.8 308.307 60.8H334.995C336.211 60.8 337.171 61.12 337.875 61.76C338.579 62.4 339.059 63.136 339.315 63.968L360.243 125.312L360.339 125.888C360.339 126.464 360.115 126.976 359.667 127.424C359.283 127.808 358.803 128 358.227 128H340.083C338.035 128 336.595 126.912 335.763 124.736L333.363 118.016H309.939L307.539 124.736ZM321.651 79.328L314.835 99.296H328.467L321.651 79.328ZM368.365 128.96C367.661 128.96 367.021 128.704 366.445 128.192C365.933 127.68 365.677 127.072 365.677 126.368V111.008C365.677 110.304 365.933 109.696 366.445 109.184C366.957 108.672 367.565 108.416 368.269 108.416C370.573 108.416 372.333 105.728 373.549 100.352C374.765 94.976 375.373 87.2 375.373 77.024V63.392C375.373 62.688 375.629 62.08 376.141 61.568C376.653 61.056 377.261 60.8 377.965 60.8H432.493C433.197 60.8 433.805 61.056 434.317 61.568C434.829 62.08 435.085 62.688 435.085 63.392V125.408C435.085 126.112 434.829 126.72 434.317 127.232C433.805 127.744 433.197 128 432.493 128H414.637C413.933 128 413.325 127.744 412.813 127.232C412.301 126.72 412.045 126.112 412.045 125.408V81.44H397.453V86.336C397.453 101.056 394.989 111.84 390.061 118.688C385.133 125.536 377.901 128.96 368.365 128.96ZM515.592 109.28C516.296 109.28 516.904 109.536 517.416 110.048C517.928 110.56 518.184 111.168 518.184 111.872V125.408C518.184 126.112 517.928 126.72 517.416 127.232C516.904 127.744 516.296 128 515.592 128H454.92C454.216 128 453.608 127.744 453.096 127.232C452.584 126.72 452.328 126.112 452.328 125.408V63.392C452.328 62.688 452.584 62.08 453.096 61.568C453.608 61.056 454.216 60.8 454.92 60.8H514.632C515.336 60.8 515.944 61.056 516.456 61.568C516.968 62.08 517.224 62.688 517.224 63.392V76.928C517.224 77.632 516.968 78.24 516.456 78.752C515.944 79.264 515.336 79.52 514.632 79.52H477.288V85.568H509.352C510.056 85.568 510.664 85.824 511.176 86.336C511.688 86.848 511.944 87.456 511.944 88.16V100.64C511.944 101.344 511.688 101.952 511.176 102.464C510.664 102.976 510.056 103.232 509.352 103.232H477.288V109.28H515.592ZM575.842 60.8C581.858 60.8 587.106 61.824 591.586 63.872C596.066 65.92 599.49 68.704 601.858 72.224C604.226 75.744 605.41 79.68 605.41 84.032C605.41 91.2 603.17 96.832 598.69 100.928C594.21 104.96 586.594 106.976 575.842 106.976H563.17V125.408C563.17 126.112 562.914 126.72 562.402 127.232C561.89 127.744 561.282 128 560.578 128H539.938C539.234 128 538.626 127.744 538.114 127.232C537.602 126.72 537.346 126.112 537.346 125.408V63.392C537.346 62.688 537.602 62.08 538.114 61.568C538.626 61.056 539.234 60.8 539.938 60.8H575.842ZM575.458 89.216C576.994 89.216 578.21 88.768 579.106 87.872C580.002 86.912 580.45 85.664 580.45 84.128C580.45 82.528 580.002 81.216 579.106 80.192C578.21 79.168 576.994 78.656 575.458 78.656H563.266V89.216H575.458ZM678.717 109.28C679.421 109.28 680.029 109.536 680.541 110.048C681.053 110.56 681.309 111.168 681.309 111.872V125.408C681.309 126.112 681.053 126.72 680.541 127.232C680.029 127.744 679.421 128 678.717 128H618.045C617.341 128 616.733 127.744 616.221 127.232C615.709 126.72 615.453 126.112 615.453 125.408V63.392C615.453 62.688 615.709 62.08 616.221 61.568C616.733 61.056 617.341 60.8 618.045 60.8H677.757C678.461 60.8 679.069 61.056 679.581 61.568C680.093 62.08 680.349 62.688 680.349 63.392V76.928C680.349 77.632 680.093 78.24 679.581 78.752C679.069 79.264 678.461 79.52 677.757 79.52H640.413V85.568H672.477C673.181 85.568 673.789 85.824 674.301 86.336C674.813 86.848 675.069 87.456 675.069 88.16V100.64C675.069 101.344 674.813 101.952 674.301 102.464C673.789 102.976 673.181 103.232 672.477 103.232H640.413V109.28H678.717ZM758.647 60.8C759.351 60.8 759.959 61.056 760.471 61.568C760.983 62.08 761.239 62.688 761.239 63.392V125.408C761.239 126.112 760.983 126.72 760.471 127.232C759.959 127.744 759.351 128 758.647 128H737.911C737.207 128 736.599 127.744 736.087 127.232C735.575 126.72 735.319 126.112 735.319 125.408V106.592H729.079L720.727 125.6C720.407 126.304 719.863 126.88 719.095 127.328C718.391 127.776 717.591 128 716.695 128H694.903C694.327 128 693.815 127.808 693.367 127.424C692.983 126.976 692.791 126.464 692.791 125.888C692.791 125.568 692.855 125.28 692.983 125.024L704.503 103.616C700.919 101.888 698.071 99.424 695.959 96.224C693.847 93.024 692.791 88.96 692.791 84.032C692.791 79.296 693.943 75.168 696.247 71.648C698.551 68.128 701.847 65.44 706.135 63.584C710.487 61.728 715.543 60.8 721.303 60.8H758.647ZM735.319 78.656H723.319C721.847 78.656 720.727 79.2 719.959 80.288C719.255 81.312 718.903 82.528 718.903 83.936C718.903 85.344 719.287 86.528 720.055 87.488C720.823 88.384 721.911 88.832 723.319 88.832H735.319V78.656Z" fill="black"/>
<circle cx="96" cy="96" r="96" fill="#00A3FF"/>
<path d="M92.5124 84.0903C93.3058 81.9541 96.639 81.0722 98.676 80.9802C100.254 80.9089 101.386 82.1528 101.899 83.5531C102.382 84.8699 99.6619 84.9034 98.9399 85.0327C97.0887 85.3643 95.2184 85.4403 93.3417 85.4474C91.9557 85.4526 90.3045 85.6096 89.0819 84.816C87.461 83.7638 86.8435 81.485 87.2347 79.6796C87.7157 77.4597 89.453 74.3672 91.4191 73.0919C93.078 72.0159 95.7478 72.5506 96.9796 74.0249C97.5507 74.7086 97.8574 75.9489 97.055 76.6072C96.2286 77.2853 94.8505 76.3815 94.2653 75.8062C92.4819 74.0524 92.5749 70.2857 92.5218 67.9744C92.4927 66.7102 92.0954 64.5834 93.2286 63.6957C94.8015 62.4636 96.5078 62.7156 98.4121 62.7156C99.9491 62.7156 100.563 62.7049 101.918 62.037C105.534 60.2544 109.474 58.8044 113.491 58.3426C115.888 58.0672 118.148 57.3438 120.512 57.0326C122.591 56.7592 124.847 56.8099 126.874 57.2965C127.815 57.5225 128.996 58.4552 129.833 58.9269C131.573 59.9071 133.382 60.9274 134.847 62.2915C135.973 63.34 136.611 64.7096 137.429 66.0141C138.311 67.4203 139.176 68.9983 139.588 70.6133C139.945 72.0156 140.351 73.2904 140.351 74.7506C140.351 76.3146 140.32 77.8557 140.219 79.4157C139.947 83.6335 139.653 87.8521 139.295 92.0634C139.088 94.5043 138.246 96.8662 138.146 99.3202C138.101 100.407 138.032 101.597 137.806 102.656C137.53 103.958 137.656 105.307 137.392 106.615C136.185 112.575 135.523 118.876 132.048 124.088C130.992 125.672 129.899 127.391 128.618 128.809C127.627 129.906 126.597 130.869 125.762 132.099C125.378 132.663 124.967 133.301 124.537 133.823C123.283 135.345 122.446 137.083 121.332 138.696C120.99 139.192 120.095 140.112 120.004 140.75C119.932 141.249 119.927 141.527 119.655 141.975C119.326 142.517 119.485 143.394 119.485 144.011C119.485 144.409 119.19 144.737 119.155 144.134C118.991 141.264 119.157 138.346 119.146 135.472C119.138 133.358 118.902 131.379 118.505 129.309C118.013 126.741 116.919 124.351 116.017 121.901C115.173 119.609 114.294 117.413 113.651 115.059C112.863 112.169 109.987 110.1 108.016 108C106.621 106.515 104.892 105.201 103.718 103.514C103.347 102.98 102.784 102.319 102.257 101.94C101.369 101.301 99.3577 101.404 98.3178 101.394C95.4937 101.365 92.6892 101.41 89.9678 102.242C88.2188 102.776 86.4019 102.994 84.6712 103.637C81.8779 104.674 79.1947 106.942 77.3201 109.235C74.8423 112.266 73.4718 116.388 73.0414 120.261C72.6482 123.801 73.4249 127.499 72.5702 130.996C72.3305 131.977 72.0767 133.129 71.6466 134.04C71.1852 135.017 70.4495 136.033 70.2989 137.112C70.1493 138.184 69.2066 140.542 70.2047 141.429C70.9319 142.075 71.6466 142.886 71.6466 143.898C71.6466 144.021 71.7178 144.819 71.5147 144.765C70.9734 144.621 70.4904 143.825 70.1858 143.427C69.2695 142.23 68.3587 141.032 67.6883 139.676C65.7242 135.701 63.9262 131.611 62.1844 127.537C61.2504 125.353 60.7928 122.878 60.1959 120.582C59.8651 119.309 59.3755 118.146 59.2251 116.831C59.0842 115.598 58.4866 114.523 58.245 113.316C58.1662 112.921 58.0797 115.012 58.0754 115.285C58.0412 117.435 57.445 119.527 57.1895 121.656C56.9732 123.459 56.6423 118.98 56.624 118.782C56.1811 113.991 54.9466 109.338 54.2584 104.598C53.7812 101.31 53.4686 98.0117 52.9484 94.7211C52.527 92.0551 52.1379 89.5884 52.1379 86.8893C52.1379 82.9063 52.1385 78.9414 52.8542 75.0051C53.5391 71.2379 54.9008 67.6174 56.5203 64.1575C57.1034 62.9118 57.702 61.5811 58.6879 60.5951C59.7557 59.5273 61.3508 58.5766 62.6556 57.8337C64.6701 56.6868 66.8729 56.4248 69.1491 56.1938C71.0728 55.9987 72.6345 56.5846 74.4174 57.2494C76.1708 57.9032 77.961 58.1384 79.6197 59.0683C81.4198 60.0775 83.288 60.7183 84.9162 62.037C88.5412 64.9729 88.4476 69.6187 85.9718 73.3087C82.2398 78.8707 76.4488 82.7606 72.4382 88.1239C70.1172 91.2278 67.7903 94.5289 67.0663 98.3966C66.9002 99.284 66.727 100.204 66.727 101.111C66.727 103.756 67.9567 95.9616 68.4046 93.3545C69.2889 88.2064 69.7805 83.1355 69.7805 77.9172C69.7805 75.0288 69.5937 71.9549 70.9303 69.2938C72.8469 65.4783 77.5147 68.4641 79.7516 70.5567C81.9706 72.6325 83.0472 75.5677 83.6722 78.4733C84.4299 81.9958 84.7651 86.0635 82.8429 89.2926C81.5347 91.49 79.4935 93.3505 77.3578 94.7211C74.8198 96.3498 71.8531 97.1561 69.347 98.8396C67.7164 99.935 65.6715 101.782 64.8987 103.674C64.8864 103.704 64.5279 104.701 64.4274 104.56C63.9219 103.853 65.1631 101.77 65.4641 101.252C68.7412 95.6137 74.9319 91.2886 80.4114 88.058C84.9498 85.3821 89.6153 83.8121 94.6988 82.5352C99.9976 81.2043 105.326 79.327 110.739 78.5298C111.449 78.4254 112.952 78.0288 113.661 78.4167C115.493 79.4193 115.975 82.969 116.3 84.7217C117.179 89.4651 117.11 94.3091 117.11 99.1129C117.11 100.025 117.81 100.725 118.156 101.554C118.375 102.078 120.453 107.724 120.635 107.633C121.566 107.167 117.205 98.3897 116.875 97.7181C114.952 93.8078 112.014 90.4633 109.721 86.7668C108.719 85.1507 107.918 83.4032 107.309 81.6022C106.657 79.6758 105.732 76.9323 106.8 74.9674C108.083 72.6076 111.611 72.1022 113.962 71.7631C116.102 71.4544 118.683 71.2386 120.72 72.14C125.015 74.0403 125.347 79.3609 125.347 83.4306C125.347 88.8358 124.416 94.3726 122.963 99.5747C122.557 101.027 122.037 102.459 121.936 103.976C121.802 105.967 122.436 107.914 122.331 109.876C122.282 110.803 121.956 111.704 121.87 112.628C121.808 113.286 121.027 117.17 122.284 117.17C124.534 117.17 127.011 118.901 128.683 120.318C129.926 121.371 131.378 122.116 132.906 122.599C133.584 122.813 134.423 123.435 134.14 122.335C133.853 121.217 133.308 120.222 132.793 119.206C132.176 117.99 131.477 116.674 131.379 115.295C131.274 113.82 131.342 112.338 131.021 110.893" stroke="white" stroke-width="18" stroke-linecap="round"/>
<path d="M106.65 155.025C106.725 127.975 99.1 113.425 96 113.425C92.9 113.425 85.35 127.975 85.35 154.975C85.35 157.325 84.375 159.525 82.65 161.075C79.825 163.6 75.375 163.925 72.2 161.775C57.6 151.9 45.15 133.725 38.95 113.2C32.35 91.35 33.575 69.925 42.25 55.925C47.3 47.775 54.525 42.675 63.15 41.2C70.075 40.025 77.5 41.25 84.9 44.85C91.75 48.175 100.25 48.175 107.125 44.85C114.5 41.25 121.95 40 128.85 41.2C137.475 42.675 144.7 47.775 149.75 55.925C158.425 69.95 159.65 91.35 153.05 113.2C146.85 133.725 134.425 151.925 119.8 161.775C115.175 164.9 106.625 163.75 106.65 155.025ZM64.875 51.25C59.15 52.35 54.45 55.6 50.95 61.3C43.875 72.675 43.05 91.45 48.725 110.25C53.875 127.275 63.65 142.375 75.2 151.35C75.825 127.475 82.375 103.225 96 103.225C109.625 103.225 116.2 127.525 116.8 151.35C128.35 142.375 138.125 127.275 143.275 110.25C148.95 91.45 148.125 72.675 141.075 61.3C137.55 55.625 132.875 52.25 127.15 51.25C122.325 50.425 117.025 51.375 111.575 54.025C101.95 58.675 90.075 58.675 80.45 54.025C76.25 52 68.85 50.475 64.875 51.25Z" fill="black"/>
<path d="M65 88.1856C65.5926 88.2934 66.224 88.7582 66.7654 88.9862C70.4357 90.5316 74.3444 91.5548 78.3018 92.0037C87.9316 93.096 97.8596 92.4839 107.41 91.0287C111.267 90.4409 114.939 89.7486 118.69 88.6988C120.045 88.3194 121.394 87.9025 122.703 87.385C128.309 85.1686 123.305 86.7611 128.368 84.3059" stroke="black" stroke-width="8" stroke-linecap="round"/>
<path d="M126.756 81C128.42 82.6297 129.67 84.9211 130.756 87" stroke="black" stroke-width="8" stroke-linecap="round"/>
<path d="M70.3951 74.8931C69.2866 74.7699 70.8518 70.8441 70.953 70.5672C72.1075 67.4065 73.586 62.6482 77.8154 63.0206C82.8463 63.4636 86.8777 68.8859 86.8777 73.7564" stroke="black" stroke-width="8" stroke-linecap="round"/>
<path d="M103.395 74.8931C102.287 74.7699 103.852 70.8441 103.953 70.5672C105.107 67.4065 106.586 62.6482 110.815 63.0206C115.846 63.4636 119.878 68.8859 119.878 73.7564" stroke="black" stroke-width="8" stroke-linecap="round"/>
<path d="M867.264 60.8C867.904 60.8 868.416 61.024 868.8 61.472C869.248 61.856 869.472 62.304 869.472 62.816C869.472 63.392 869.28 64.128 868.896 65.024L848.16 108.416C845.6 113.792 843.232 117.824 841.056 120.512C838.88 123.2 836.192 125.12 832.992 126.272C829.856 127.424 825.536 128 820.032 128H808.992C808.288 128 807.68 127.744 807.168 127.232C806.656 126.72 806.4 126.112 806.4 125.408V110.048C806.4 109.344 806.656 108.736 807.168 108.224C807.68 107.712 808.288 107.456 808.992 107.456H816.768C818.432 107.456 819.872 107.2 821.088 106.688L797.664 63.776C797.472 63.456 797.376 63.136 797.376 62.816C797.376 62.24 797.6 61.76 798.048 61.376C798.56 60.992 799.2 60.8 799.968 60.8H820.992C821.76 60.8 822.368 60.992 822.816 61.376C823.264 61.76 823.68 62.336 824.064 63.104L833.472 83.552L842.976 63.104C843.68 61.568 844.768 60.8 846.24 60.8H867.264ZM879.803 128.96C879.099 128.96 878.459 128.704 877.883 128.192C877.371 127.68 877.115 127.072 877.115 126.368V111.008C877.115 110.304 877.371 109.696 877.883 109.184C878.395 108.672 879.003 108.416 879.707 108.416C882.011 108.416 883.771 105.728 884.987 100.352C886.203 94.976 886.811 87.2 886.811 77.024V63.392C886.811 62.688 887.067 62.08 887.579 61.568C888.091 61.056 888.699 60.8 889.403 60.8H943.931C944.635 60.8 945.243 61.056 945.755 61.568C946.267 62.08 946.523 62.688 946.523 63.392V125.408C946.523 126.112 946.267 126.72 945.755 127.232C945.243 127.744 944.635 128 943.931 128H926.075C925.371 128 924.763 127.744 924.25 127.232C923.739 126.72 923.483 126.112 923.483 125.408V81.44H908.891V86.336C908.891 101.056 906.427 111.84 901.499 118.688C896.571 125.536 889.339 128.96 879.803 128.96ZM983.157 82.208C991.093 82.208 997.333 84.256 1001.88 88.352C1006.42 92.448 1008.69 97.984 1008.69 104.96C1008.69 109.312 1007.67 113.248 1005.62 116.768C1003.64 120.224 1000.73 122.976 996.885 125.024C993.045 127.008 988.501 128 983.253 128H959.349C958.645 128 958.037 127.744 957.525 127.232C957.013 126.72 956.757 126.112 956.757 125.408V63.392C956.757 62.688 957.013 62.08 957.525 61.568C958.037 61.056 958.645 60.8 959.349 60.8H976.245C976.949 60.8 977.557 61.056 978.069 61.568C978.581 62.08 978.837 62.688 978.837 63.392V82.208H983.157ZM1016.85 128C1016.15 128 1015.54 127.744 1015.03 127.232C1014.52 126.72 1014.26 126.112 1014.26 125.408V63.392C1014.26 62.688 1014.52 62.08 1015.03 61.568C1015.54 61.056 1016.15 60.8 1016.85 60.8H1032.6C1033.3 60.8 1033.91 61.056 1034.42 61.568C1034.93 62.08 1035.19 62.688 1035.19 63.392V125.408C1035.19 126.112 1034.93 126.72 1034.42 127.232C1033.91 127.744 1033.3 128 1032.6 128H1016.85ZM983.157 110.048C985.205 110.048 986.773 109.568 987.861 108.608C988.949 107.648 989.493 106.336 989.493 104.672C989.493 101.344 987.381 99.68 983.157 99.68H978.837V110.048H983.157ZM1087.09 86.048C1095.66 86.048 1102.29 87.904 1106.96 91.616C1111.7 95.264 1114.06 100.352 1114.06 106.88C1114.06 113.408 1111.7 118.56 1106.96 122.336C1102.22 126.112 1095.57 128 1086.99 128H1047.44C1046.74 128 1046.13 127.744 1045.62 127.232C1045.1 126.72 1044.85 126.112 1044.85 125.408V63.392C1044.85 62.688 1045.1 62.08 1045.62 61.568C1046.13 61.056 1046.74 60.8 1047.44 60.8H1103.89C1104.59 60.8 1105.2 61.056 1105.71 61.568C1106.22 62.08 1106.48 62.688 1106.48 63.392V76.832C1106.48 77.536 1106.22 78.144 1105.71 78.656C1105.2 79.168 1104.59 79.424 1103.89 79.424H1069.81V86.048H1087.09ZM1083.73 111.488C1085.2 111.488 1086.29 110.976 1086.99 109.952C1087.76 108.928 1088.14 107.808 1088.14 106.592C1088.14 105.376 1087.73 104.32 1086.9 103.424C1086.13 102.528 1085.07 102.08 1083.73 102.08H1069.81V111.488H1083.73ZM1194.76 100.256C1194.76 110.048 1191.5 117.28 1184.97 121.952C1178.51 126.624 1169.87 128.96 1159.05 128.96C1148.23 128.96 1139.56 126.624 1133.03 121.952C1126.57 117.28 1123.34 109.984 1123.34 100.064V88.736C1123.34 82.208 1124.87 76.8 1127.95 72.512C1131.08 68.16 1135.34 64.96 1140.71 62.912C1146.09 60.864 1152.2 59.84 1159.05 59.84C1165.9 59.84 1171.98 60.864 1177.29 62.912C1182.67 64.96 1186.92 68.128 1190.06 72.416C1193.19 76.704 1194.76 82.08 1194.76 88.544V100.256ZM1149.26 102.08C1149.26 104.704 1150.12 106.72 1151.85 108.128C1153.64 109.536 1156.04 110.24 1159.05 110.24C1162.06 110.24 1164.43 109.536 1166.15 108.128C1167.95 106.656 1168.84 104.608 1168.84 101.984V86.816C1168.84 84.192 1167.95 82.176 1166.15 80.768C1164.43 79.296 1162.06 78.56 1159.05 78.56C1156.04 78.56 1153.64 79.264 1151.85 80.672C1150.12 82.08 1149.26 84.096 1149.26 86.72V102.08ZM1280.26 124.64C1280.52 125.024 1280.64 125.44 1280.64 125.888C1280.64 126.464 1280.42 126.976 1279.97 127.424C1279.59 127.808 1279.11 128 1278.53 128H1253.76C1252.29 128 1251.14 127.488 1250.31 126.464L1235.52 105.056H1232.64V125.408C1232.64 126.112 1232.39 126.72 1231.88 127.232C1231.36 127.744 1230.76 128 1230.05 128H1210.28C1209.57 128 1208.96 127.744 1208.45 127.232C1207.94 126.72 1207.68 126.112 1207.68 125.408V63.392C1207.68 62.688 1207.94 62.08 1208.45 61.568C1208.96 61.056 1209.57 60.8 1210.28 60.8H1230.05C1230.76 60.8 1231.36 61.056 1231.88 61.568C1232.39 62.08 1232.64 62.688 1232.64 63.392V83.168H1234.76L1248.77 62.432C1249.73 61.344 1250.92 60.8 1252.32 60.8H1275.46C1276.04 60.8 1276.52 61.024 1276.9 61.472C1277.35 61.856 1277.57 62.336 1277.57 62.912C1277.57 63.424 1277.41 63.872 1277.09 64.256L1254.34 92L1280.26 124.64Z" fill="black"/>
</svg>
